<?xml version="1.0" encoding="utf-8"?>
<!-- Generator: Adobe Illustrator 26.1.0, SVG Export Plug-In . SVG Version: 6.00 Build 0)  -->
<svg version="1.1" id="Layer_1" xmlns="http://www.w3.org/2000/svg" xmlns:xlink="http://www.w3.org/1999/xlink" x="0px" y="0px"
	 viewBox="0 0 500 500" style="enable-background:new 0 0 500 500;" xml:space="preserve">
<style type="text/css">
	.st0{fill:#3E1162;}
</style>
<g>
	<g>
		<path class="st0" d="M456.4,172.4L441,229.7c-7.2,26.9-25.9,42.9-56.1,48.4c26.4,9.9,35.2,30.3,26.4,61.6l-26.4,100.1
			c-9.9,35.7-36.9,53.4-82.5,53.4h-97.9l50.6-190.3h-33.5l13.8-52.3h34.1l45.1-169.4h73.2C450.4,81.1,472.9,111.4,456.4,172.4z
			 M343.1,302.8h-33l-36.9,138.1h26.9c19.3,0,31.9-9.9,37.4-30.3l19.3-71C363.4,314.9,359.1,302.8,343.1,302.8z M376.7,133.4h-20.9
			l-31.4,117.2h38c12.1,0,20.3-7.2,24.2-22l15.4-59.4C408,145.5,399.8,133.4,376.7,133.4z"/>
	</g>
	<g>
		<path class="st0" d="M290.3,98.2l-15.4,57.2c-7.2,26.9-25.9,42.9-56.1,48.4c26.4,9.9,35.2,30.3,26.4,61.6l-26.4,100.1
			c-9.9,35.7-36.9,53.4-82.5,53.4H38.4L89,228.5H55.4l13.8-52.3h34.1L148.4,6.9h73.2C284.3,6.8,306.8,37.1,290.3,98.2z M177,228.5
			h-33l-36.9,138.1h26.9c19.3,0,31.9-9.9,37.4-30.3l19.3-71C197.3,240.6,193,228.5,177,228.5z M210.5,59.1h-20.9l-31.4,117.2h38
			c12.1,0,20.3-7.2,24.2-22l15.4-59.4C241.9,71.2,233.7,59.1,210.5,59.1z"/>
	</g>
</g>
</svg>
